<svg width="76" height="76" viewBox="0 0 76 76" fill="none" xmlns="http://www.w3.org/2000/svg">
<circle cx="38" cy="38" r="38" fill="#E4E4E4"/>
<path d="M25.8612 52.1845H21.1116C20.6801 52.1845 20.3304 52.5343 20.3304 52.9658C20.3304 53.3972 20.6801 53.747 21.1116 53.747H25.8611C26.2926 53.747 26.6423 53.3972 26.6423 52.9658C26.6423 52.5343 26.2926 52.1845 25.8612 52.1845Z" fill="#29A867"/>
<path d="M30.1001 52.6672C29.9723 52.3551 29.6447 52.1576 29.3089 52.1879C28.9859 52.2172 28.7087 52.4508 28.6243 52.7636C28.5406 53.0743 28.6634 53.4134 28.9242 53.6009C29.1882 53.7907 29.556 53.7932 29.8232 53.6083C30.1218 53.4016 30.2399 53.0027 30.1001 52.6672Z" fill="#29A867"/>
<path d="M29.3929 48.271H19.7519C19.3204 48.271 18.9706 48.6208 18.9706 49.0522C18.9706 49.4837 19.3204 49.8335 19.7519 49.8335H29.3929C29.8244 49.8335 30.1742 49.4837 30.1742 49.0522C30.1742 48.6208 29.8244 48.271 29.3929 48.271Z" fill="#29A867"/>
<path d="M26.3893 45.1387C26.3893 44.7072 26.0395 44.3574 25.608 44.3574H18.7812C18.3498 44.3574 18 44.7072 18 45.1387C18 45.5702 18.3498 45.9199 18.7812 45.9199H25.608C26.0395 45.9199 26.3893 45.5702 26.3893 45.1387Z" fill="#29A867"/>
<mask id="path-6-inside-1" fill="white">
<path d="M57.0659 48.1743C56.9338 43.7452 53.2897 40.1829 48.8292 40.1829H44.8652L42.6102 26.6411C42.492 25.8268 42.0592 25.1143 41.3905 24.6339C40.7192 24.1517 39.902 23.9694 39.0895 24.1205C37.4331 24.4285 36.9773 24.4945 36.853 24.5063C36.6229 24.5284 36.4143 24.6512 36.2834 24.8418C36.1526 25.0323 36.1128 25.2711 36.1749 25.4938L36.3691 26.1902C34.95 26.0203 33.6506 25.2478 32.8256 24.0389L32.3483 23.3405C32.2227 23.1567 32.0247 23.0352 31.804 23.0066C31.5834 22.9777 31.3609 23.0447 31.1924 23.1902L27.4566 26.4188C27.038 26.7331 26.6335 27.1427 26.254 27.6366L26.2534 27.6374C25.1936 29.0136 24.2767 31.0756 23.7495 33.2432C23.1712 33.297 22.6121 33.5651 22.2042 34.0377L21.2996 35.0859C20.8929 35.5572 20.6945 36.1586 20.7411 36.7794C20.7877 37.4002 21.0735 37.9652 21.546 38.3706L36.9343 51.5731C37.1952 51.7925 37.4671 51.9965 37.7486 52.1845H32.9248C32.4933 52.1845 32.1435 52.5343 32.1435 52.9658C32.1435 53.3973 32.4933 53.747 32.9248 53.747H55.6743C56.9567 53.747 58.0001 52.7037 58.0001 51.4213V50.0367C58.0001 49.2757 57.6327 48.5988 57.0659 48.1743ZM41.9162 31.9855H39.6063L39.0313 29.9227H41.5727L41.9162 31.9855ZM42.1763 33.548L42.5369 35.7133H40.6452L40.0417 33.548H42.1763ZM42.7971 37.2758L43.3499 40.5958C43.1092 40.6668 42.8505 40.6636 42.598 40.582C42.1776 40.4461 41.8706 40.1234 41.7538 39.6906L41.0807 37.2758H42.7971ZM39.3752 25.6566C39.765 25.5841 40.1569 25.6716 40.4788 25.9029C40.8009 26.1342 41.009 26.4779 41.0647 26.8706C41.0656 26.8768 41.0665 26.883 41.0676 26.8891L41.3125 28.3602H38.5959L37.916 25.9207C38.2557 25.8618 38.7245 25.7777 39.3752 25.6566ZM28.457 27.6192L31.552 24.9445C32.7567 26.6929 34.7208 27.7388 36.814 27.7866L36.9738 28.3601H36.9275C36.496 28.3601 36.1463 28.7098 36.1463 29.1413C36.1463 29.5728 36.496 29.9226 36.9275 29.9226H37.4093L37.9842 31.9854H37.4765C37.045 31.9854 36.6952 32.3352 36.6952 32.7666C36.6952 33.1981 37.045 33.5479 37.4765 33.5479H38.4198L39.0233 35.7132H38.1015C37.67 35.7132 37.3202 36.063 37.3202 36.4945C37.3202 36.9259 37.67 37.2757 38.1015 37.2757H39.4588L40.247 40.1036C40.4986 41.0367 41.1978 41.7713 42.1174 42.0686C42.2467 42.1104 42.3774 42.1426 42.5088 42.1654L41.7476 43.2641C41.5019 43.6188 41.5902 44.1056 41.9449 44.3513C42.0806 44.4452 42.2356 44.4904 42.3891 44.4904C42.6367 44.4904 42.8802 44.373 43.032 44.154L44.7006 41.7453H48.8292C52.2708 41.7453 55.1126 44.3623 55.4693 47.7109H42.896C42.1428 47.7109 41.4098 47.4454 40.8312 46.9632L29.7242 37.4341C31.0424 36.3813 31.8282 34.7481 31.8282 32.9618C31.8282 31.5916 31.3338 30.2681 30.4359 29.2348C29.8567 28.5684 29.1351 28.0506 28.3335 27.7154C28.3594 27.695 28.3853 27.6752 28.4113 27.6559C28.427 27.6443 28.4423 27.632 28.457 27.6192ZM27.2106 28.9795C28.981 29.4556 30.2657 31.0925 30.2657 32.9618C30.2657 34.3722 29.6025 35.6467 28.5081 36.3907L25.4793 33.7922C25.4099 33.7327 25.3379 33.678 25.2638 33.628C25.691 31.8595 26.3935 30.1832 27.2106 28.9795ZM56.4376 51.4213C56.4376 51.8421 56.0952 52.1845 55.6743 52.1845H42.896C41.0856 52.1845 39.3256 51.5427 37.946 50.3823L22.5634 37.1848C22.4083 37.0517 22.3145 36.8663 22.2992 36.6626C22.2839 36.4588 22.3491 36.2614 22.4825 36.1068L23.3871 35.0586C23.5377 34.8841 23.751 34.7945 23.9656 34.7945C24.1416 34.7945 24.3184 34.8548 24.462 34.978L39.8178 48.1526C39.8203 48.1548 39.8229 48.157 39.8255 48.1591C40.6852 48.8777 41.7756 49.2734 42.896 49.2734H55.6743C56.0952 49.2734 56.4376 49.6159 56.4376 50.0367V51.4213Z"/>
<path d="M56.4376 51.4213C56.4376 51.8421 56.0952 52.1845 55.6743 52.1845H42.896C41.0856 52.1845 39.3256 51.5427 37.946 50.3823L22.5634 37.1848C22.4083 37.0517 22.3145 36.8663 22.2992 36.6626C22.2839 36.4588 22.3491 36.2614 22.4825 36.1068L23.3871 35.0586C23.5377 34.8841 23.751 34.7945 23.9656 34.7945C24.1416 34.7945 24.3184 34.8548 24.462 34.978L39.8178 48.1526L39.8255 48.1591C40.6852 48.8777 41.7756 49.2734 42.896 49.2734H55.6743C56.0952 49.2734 56.4376 49.6159 56.4376 50.0367V51.4213Z"/>
<path d="M28.457 27.6192L31.552 24.9445C32.7567 26.6929 34.7208 27.7388 36.814 27.7866L36.9738 28.3601H36.9275C36.496 28.3601 36.1463 28.7098 36.1463 29.1413C36.1463 29.5728 36.496 29.9226 36.9275 29.9226H37.4093L37.9842 31.9854H37.4765C37.045 31.9854 36.6952 32.3352 36.6952 32.7666C36.6952 33.1981 37.045 33.5479 37.4765 33.5479H38.4198L39.0233 35.7132H38.1015C37.67 35.7132 37.3202 36.063 37.3202 36.4945C37.3202 36.9259 37.67 37.2757 38.1015 37.2757H39.4588L40.247 40.1036C40.4986 41.0367 41.1978 41.7713 42.1174 42.0686C42.2467 42.1104 42.3774 42.1426 42.5088 42.1654L41.7476 43.2641C41.5019 43.6188 41.5902 44.1056 41.9449 44.3513C42.0806 44.4452 42.2356 44.4904 42.3891 44.4904C42.6367 44.4904 42.8802 44.373 43.032 44.154L44.7006 41.7453H48.8292C52.2708 41.7453 55.1126 44.3623 55.4693 47.7109H42.896C42.1428 47.7109 41.4098 47.4454 40.8312 46.9632L29.7242 37.4341C31.0424 36.3813 31.8282 34.7481 31.8282 32.9618C31.8282 31.5916 31.3338 30.2681 30.4359 29.2348C29.8567 28.5684 29.1351 28.0506 28.3335 27.7154C28.3594 27.695 28.3853 27.6752 28.4113 27.6559C28.427 27.6443 28.4423 27.632 28.457 27.6192Z"/>
<path d="M27.2106 28.9795C28.981 29.4556 30.2657 31.0925 30.2657 32.9618C30.2657 34.3722 29.6025 35.6467 28.5081 36.3907L25.4793 33.7922C25.4099 33.7327 25.3379 33.678 25.2638 33.628C25.691 31.8595 26.3935 30.1832 27.2106 28.9795Z"/>
</mask>
<path d="M57.0659 48.1743C56.9338 43.7452 53.2897 40.1829 48.8292 40.1829H44.8652L42.6102 26.6411C42.492 25.8268 42.0592 25.1143 41.3905 24.6339C40.7192 24.1517 39.902 23.9694 39.0895 24.1205C37.4331 24.4285 36.9773 24.4945 36.853 24.5063C36.6229 24.5284 36.4143 24.6512 36.2834 24.8418C36.1526 25.0323 36.1128 25.2711 36.1749 25.4938L36.3691 26.1902C34.95 26.0203 33.6506 25.2478 32.8256 24.0389L32.3483 23.3405C32.2227 23.1567 32.0247 23.0352 31.804 23.0066C31.5834 22.9777 31.3609 23.0447 31.1924 23.1902L27.4566 26.4188C27.038 26.7331 26.6335 27.1427 26.254 27.6366L26.2534 27.6374C25.1936 29.0136 24.2767 31.0756 23.7495 33.2432C23.1712 33.297 22.6121 33.5651 22.2042 34.0377L21.2996 35.0859C20.8929 35.5572 20.6945 36.1586 20.7411 36.7794C20.7877 37.4002 21.0735 37.9652 21.546 38.3706L36.9343 51.5731C37.1952 51.7925 37.4671 51.9965 37.7486 52.1845H32.9248C32.4933 52.1845 32.1435 52.5343 32.1435 52.9658C32.1435 53.3973 32.4933 53.747 32.9248 53.747H55.6743C56.9567 53.747 58.0001 52.7037 58.0001 51.4213V50.0367C58.0001 49.2757 57.6327 48.5988 57.0659 48.1743ZM41.9162 31.9855H39.6063L39.0313 29.9227H41.5727L41.9162 31.9855ZM42.1763 33.548L42.5369 35.7133H40.6452L40.0417 33.548H42.1763ZM42.7971 37.2758L43.3499 40.5958C43.1092 40.6668 42.8505 40.6636 42.598 40.582C42.1776 40.4461 41.8706 40.1234 41.7538 39.6906L41.0807 37.2758H42.7971ZM39.3752 25.6566C39.765 25.5841 40.1569 25.6716 40.4788 25.9029C40.8009 26.1342 41.009 26.4779 41.0647 26.8706C41.0656 26.8768 41.0665 26.883 41.0676 26.8891L41.3125 28.3602H38.5959L37.916 25.9207C38.2557 25.8618 38.7245 25.7777 39.3752 25.6566ZM28.457 27.6192L31.552 24.9445C32.7567 26.6929 34.7208 27.7388 36.814 27.7866L36.9738 28.3601H36.9275C36.496 28.3601 36.1463 28.7098 36.1463 29.1413C36.1463 29.5728 36.496 29.9226 36.9275 29.9226H37.4093L37.9842 31.9854H37.4765C37.045 31.9854 36.6952 32.3352 36.6952 32.7666C36.6952 33.1981 37.045 33.5479 37.4765 33.5479H38.4198L39.0233 35.7132H38.1015C37.67 35.7132 37.3202 36.063 37.3202 36.4945C37.3202 36.9259 37.67 37.2757 38.1015 37.2757H39.4588L40.247 40.1036C40.4986 41.0367 41.1978 41.7713 42.1174 42.0686C42.2467 42.1104 42.3774 42.1426 42.5088 42.1654L41.7476 43.2641C41.5019 43.6188 41.5902 44.1056 41.9449 44.3513C42.0806 44.4452 42.2356 44.4904 42.3891 44.4904C42.6367 44.4904 42.8802 44.373 43.032 44.154L44.7006 41.7453H48.8292C52.2708 41.7453 55.1126 44.3623 55.4693 47.7109H42.896C42.1428 47.7109 41.4098 47.4454 40.8312 46.9632L29.7242 37.4341C31.0424 36.3813 31.8282 34.7481 31.8282 32.9618C31.8282 31.5916 31.3338 30.2681 30.4359 29.2348C29.8567 28.5684 29.1351 28.0506 28.3335 27.7154C28.3594 27.695 28.3853 27.6752 28.4113 27.6559C28.427 27.6443 28.4423 27.632 28.457 27.6192ZM27.2106 28.9795C28.981 29.4556 30.2657 31.0925 30.2657 32.9618C30.2657 34.3722 29.6025 35.6467 28.5081 36.3907L25.4793 33.7922C25.4099 33.7327 25.3379 33.678 25.2638 33.628C25.691 31.8595 26.3935 30.1832 27.2106 28.9795ZM56.4376 51.4213C56.4376 51.8421 56.0952 52.1845 55.6743 52.1845H42.896C41.0856 52.1845 39.3256 51.5427 37.946 50.3823L22.5634 37.1848C22.4083 37.0517 22.3145 36.8663 22.2992 36.6626C22.2839 36.4588 22.3491 36.2614 22.4825 36.1068L23.3871 35.0586C23.5377 34.8841 23.751 34.7945 23.9656 34.7945C24.1416 34.7945 24.3184 34.8548 24.462 34.978L39.8178 48.1526C39.8203 48.1548 39.8229 48.157 39.8255 48.1591C40.6852 48.8777 41.7756 49.2734 42.896 49.2734H55.6743C56.0952 49.2734 56.4376 49.6159 56.4376 50.0367V51.4213Z" fill="#61DB99"/>
<path d="M56.4376 51.4213C56.4376 51.8421 56.0952 52.1845 55.6743 52.1845H42.896C41.0856 52.1845 39.3256 51.5427 37.946 50.3823L22.5634 37.1848C22.4083 37.0517 22.3145 36.8663 22.2992 36.6626C22.2839 36.4588 22.3491 36.2614 22.4825 36.1068L23.3871 35.0586C23.5377 34.8841 23.751 34.7945 23.9656 34.7945C24.1416 34.7945 24.3184 34.8548 24.462 34.978L39.8178 48.1526L39.8255 48.1591C40.6852 48.8777 41.7756 49.2734 42.896 49.2734H55.6743C56.0952 49.2734 56.4376 49.6159 56.4376 50.0367V51.4213Z" fill="#61DB99"/>
<path d="M28.457 27.6192L31.552 24.9445C32.7567 26.6929 34.7208 27.7388 36.814 27.7866L36.9738 28.3601H36.9275C36.496 28.3601 36.1463 28.7098 36.1463 29.1413C36.1463 29.5728 36.496 29.9226 36.9275 29.9226H37.4093L37.9842 31.9854H37.4765C37.045 31.9854 36.6952 32.3352 36.6952 32.7666C36.6952 33.1981 37.045 33.5479 37.4765 33.5479H38.4198L39.0233 35.7132H38.1015C37.67 35.7132 37.3202 36.063 37.3202 36.4945C37.3202 36.9259 37.67 37.2757 38.1015 37.2757H39.4588L40.247 40.1036C40.4986 41.0367 41.1978 41.7713 42.1174 42.0686C42.2467 42.1104 42.3774 42.1426 42.5088 42.1654L41.7476 43.2641C41.5019 43.6188 41.5902 44.1056 41.9449 44.3513C42.0806 44.4452 42.2356 44.4904 42.3891 44.4904C42.6367 44.4904 42.8802 44.373 43.032 44.154L44.7006 41.7453H48.8292C52.2708 41.7453 55.1126 44.3623 55.4693 47.7109H42.896C42.1428 47.7109 41.4098 47.4454 40.8312 46.9632L29.7242 37.4341C31.0424 36.3813 31.8282 34.7481 31.8282 32.9618C31.8282 31.5916 31.3338 30.2681 30.4359 29.2348C29.8567 28.5684 29.1351 28.0506 28.3335 27.7154C28.3594 27.695 28.3853 27.6752 28.4113 27.6559C28.427 27.6443 28.4423 27.632 28.457 27.6192Z" fill="#61DB99"/>
<path d="M27.2106 28.9795C28.981 29.4556 30.2657 31.0925 30.2657 32.9618C30.2657 34.3722 29.6025 35.6467 28.5081 36.3907L25.4793 33.7922C25.4099 33.7327 25.3379 33.678 25.2638 33.628C25.691 31.8595 26.3935 30.1832 27.2106 28.9795Z" fill="#61DB99"/>
<path d="M28.457 27.6192L28.1301 27.2409L28.1294 27.2416L28.457 27.6192ZM31.552 24.9445L31.9638 24.6609L31.6472 24.2014L31.2251 24.5662L31.552 24.9445ZM36.814 27.7866L37.2956 27.6523L37.1961 27.2952L36.8254 27.2867L36.814 27.7866ZM36.9738 28.3601V28.8601H37.6323L37.4555 28.2258L36.9738 28.3601ZM37.4093 29.9226L37.891 29.7883L37.789 29.4226H37.4093V29.9226ZM37.9842 31.9854V32.4854H38.6426L38.4659 31.8512L37.9842 31.9854ZM38.4198 33.5479L38.9014 33.4137L38.7995 33.0479H38.4198V33.5479ZM39.0233 35.7132V36.2132H39.6817L39.5049 35.579L39.0233 35.7132ZM39.4588 37.2757L39.9404 37.1415L39.8385 36.7757H39.4588V37.2757ZM40.247 40.1036L40.7297 39.9734L40.7286 39.9694L40.247 40.1036ZM42.1174 42.0686L41.9636 42.5444L41.9636 42.5444L42.1174 42.0686ZM42.5088 42.1654L42.9198 42.4501L43.3655 41.8067L42.5943 41.6728L42.5088 42.1654ZM41.7476 43.2641L41.3366 42.9794L41.3366 42.9794L41.7476 43.2641ZM41.9449 44.3513L41.6601 44.7622L41.6602 44.7623L41.9449 44.3513ZM43.032 44.154L43.443 44.4387L43.443 44.4387L43.032 44.154ZM44.7006 41.7453V41.2453H44.4388L44.2896 41.4606L44.7006 41.7453ZM55.4693 47.7109V48.2109H56.0254L55.9665 47.6579L55.4693 47.7109ZM40.8312 46.9632L40.5056 47.3427L40.5111 47.3473L40.8312 46.9632ZM29.7242 37.4341L29.4122 37.0434L28.9403 37.4203L29.3987 37.8135L29.7242 37.4341ZM30.4359 29.2348L30.8133 28.9069L30.8133 28.9069L30.4359 29.2348ZM28.3335 27.7154L28.0244 27.3223L27.3553 27.8484L28.1406 28.1767L28.3335 27.7154ZM28.4113 27.6559L28.7089 28.0577L28.709 28.0576L28.4113 27.6559ZM27.2106 28.9795L27.3405 28.4967L26.9968 28.4043L26.797 28.6987L27.2106 28.9795ZM28.5081 36.3907L28.1825 36.7702L28.4728 37.0193L28.7892 36.8042L28.5081 36.3907ZM25.4793 33.7922L25.1537 34.1716L25.1537 34.1717L25.4793 33.7922ZM25.2638 33.628L24.7778 33.5106L24.6963 33.8481L24.9841 34.0424L25.2638 33.628ZM37.946 50.3823L37.6204 50.7618L37.6241 50.7649L37.946 50.3823ZM22.5634 37.1848L22.8889 36.8053L22.8889 36.8053L22.5634 37.1848ZM22.2992 36.6626L22.7978 36.6253L22.7978 36.6251L22.2992 36.6626ZM22.4825 36.1068L22.861 36.4335L22.861 36.4335L22.4825 36.1068ZM23.3871 35.0586L23.0087 34.7318L23.0086 34.7319L23.3871 35.0586ZM24.462 34.978L24.7875 34.5985L24.7874 34.5984L24.462 34.978ZM28.784 27.9975L31.879 25.3228L31.2251 24.5662L28.1301 27.2409L28.784 27.9975ZM31.1403 25.2282C32.4366 27.1096 34.5501 28.2351 36.8026 28.2864L36.8254 27.2867C34.8914 27.2426 33.0767 26.2762 31.9638 24.6609L31.1403 25.2282ZM36.3324 27.9208L36.4922 28.4943L37.4555 28.2258L37.2956 27.6523L36.3324 27.9208ZM36.9738 27.8601H36.9275V28.8601H36.9738V27.8601ZM36.9275 27.8601C36.2199 27.8601 35.6463 28.4337 35.6463 29.1413H36.6463C36.6463 28.986 36.7722 28.8601 36.9275 28.8601V27.8601ZM35.6463 29.1413C35.6463 29.849 36.2199 30.4226 36.9275 30.4226V29.4226C36.7722 29.4226 36.6463 29.2967 36.6463 29.1413H35.6463ZM36.9275 30.4226H37.4093V29.4226H36.9275V30.4226ZM36.9277 30.0568L37.5026 32.1196L38.4659 31.8512L37.891 29.7883L36.9277 30.0568ZM37.9842 31.4854H37.4765V32.4854H37.9842V31.4854ZM37.4765 31.4854C36.7689 31.4854 36.1952 32.059 36.1952 32.7666H37.1952C37.1952 32.6113 37.3212 32.4854 37.4765 32.4854V31.4854ZM36.1952 32.7666C36.1952 33.4743 36.7689 34.0479 37.4765 34.0479V33.0479C37.3212 33.0479 37.1952 32.922 37.1952 32.7666H36.1952ZM37.4765 34.0479H38.4198V33.0479H37.4765V34.0479ZM37.9381 33.6821L38.5417 35.8475L39.5049 35.579L38.9014 33.4137L37.9381 33.6821ZM39.0233 35.2132H38.1015V36.2132H39.0233V35.2132ZM38.1015 35.2132C37.3939 35.2132 36.8202 35.7868 36.8202 36.4945H37.8202C37.8202 36.3391 37.9462 36.2132 38.1015 36.2132V35.2132ZM36.8202 36.4945C36.8202 37.2021 37.3939 37.7757 38.1015 37.7757V36.7757C37.9462 36.7757 37.8202 36.6498 37.8202 36.4945H36.8202ZM38.1015 37.7757H39.4588V36.7757H38.1015V37.7757ZM38.9771 37.41L39.7653 40.2378L40.7286 39.9694L39.9404 37.1415L38.9771 37.41ZM39.7642 40.2338C40.0599 41.3303 40.8829 42.195 41.9636 42.5444L42.2712 41.5928C41.5127 41.3477 40.9373 40.7431 40.7297 39.9734L39.7642 40.2338ZM41.9636 42.5444C42.1152 42.5934 42.2688 42.6312 42.4232 42.658L42.5943 41.6728C42.486 41.654 42.3781 41.6274 42.2712 41.5928L41.9636 42.5444ZM42.0978 41.8807L41.3366 42.9794L42.1586 43.5489L42.9198 42.4501L42.0978 41.8807ZM41.3366 42.9794C40.9336 43.5611 41.0785 44.3593 41.6601 44.7622L42.2296 43.9403C42.102 43.8518 42.0701 43.6766 42.1586 43.5489L41.3366 42.9794ZM41.6602 44.7623C41.8821 44.916 42.1371 44.9904 42.3891 44.9904V43.9904C42.3342 43.9904 42.279 43.9745 42.2295 43.9402L41.6602 44.7623ZM42.3891 44.9904C42.7936 44.9904 43.1939 44.7982 43.443 44.4387L42.621 43.8692C42.5666 43.9477 42.4797 43.9904 42.3891 43.9904V44.9904ZM43.443 44.4387L45.1116 42.0301L44.2896 41.4606L42.621 43.8693L43.443 44.4387ZM44.7006 42.2453H48.8292V41.2453H44.7006V42.2453ZM48.8292 42.2453C52.0122 42.2453 54.6422 44.6666 54.9721 47.7638L55.9665 47.6579C55.583 44.0581 52.5294 41.2453 48.8292 41.2453V42.2453ZM55.4693 47.2109H42.896V48.2109H55.4693V47.2109ZM42.896 47.2109C42.2598 47.2109 41.64 46.9864 41.1513 46.5791L40.5111 47.3473C41.1795 47.9044 42.0258 48.2109 42.896 48.2109V47.2109ZM41.1568 46.5837L30.0498 37.0546L29.3987 37.8135L40.5056 47.3427L41.1568 46.5837ZM30.0363 37.8248C31.4768 36.6742 32.3282 34.8954 32.3282 32.9618H31.3282C31.3282 34.6008 30.6079 36.0884 29.4122 37.0434L30.0363 37.8248ZM32.3282 32.9618C32.3282 31.4712 31.7903 30.0312 30.8133 28.9069L30.0585 29.5628C30.8772 30.505 31.3282 31.712 31.3282 32.9618H32.3282ZM30.8133 28.9069C30.1834 28.1821 29.3985 27.6187 28.5263 27.2541L28.1406 28.1767C28.8717 28.4824 29.5301 28.9548 30.0585 29.5628L30.8133 28.9069ZM28.6425 28.1085C28.665 28.0908 28.6871 28.0738 28.7089 28.0577L28.1136 27.2542C28.0835 27.2765 28.0538 27.2992 28.0244 27.3223L28.6425 28.1085ZM28.709 28.0576C28.7348 28.0385 28.7601 28.0183 28.7847 27.9969L28.1294 27.2416C28.1245 27.2458 28.1192 27.2501 28.1135 27.2543L28.709 28.0576ZM27.0808 29.4624C28.6356 29.8805 29.7657 31.3216 29.7657 32.9618H30.7657C30.7657 30.8634 29.3263 29.0306 27.3405 28.4967L27.0808 29.4624ZM29.7657 32.9618C29.7657 34.2154 29.1774 35.3311 28.227 35.9772L28.7892 36.8042C30.0277 35.9623 30.7657 34.529 30.7657 32.9618H29.7657ZM28.8336 36.0112L25.8049 33.4127L25.1537 34.1717L28.1825 36.7702L28.8336 36.0112ZM25.8049 33.4127C25.7206 33.3404 25.6332 33.2741 25.5436 33.2136L24.9841 34.0424C25.0426 34.0819 25.0993 34.125 25.1537 34.1716L25.8049 33.4127ZM25.7499 33.7454C26.1663 32.0213 26.8481 30.4037 27.6243 29.2604L26.797 28.6987C25.9388 29.9627 25.2157 31.6976 24.7778 33.5106L25.7499 33.7454ZM55.9376 51.4213C55.9376 51.566 55.819 51.6845 55.6743 51.6845V52.6845C56.3713 52.6845 56.9376 52.1183 56.9376 51.4213H55.9376ZM55.6743 51.6845H42.896V52.6845H55.6743V51.6845ZM42.896 51.6845C41.2031 51.6845 39.5571 51.0841 38.2678 49.9996L37.6241 50.7649C39.094 52.0013 40.9681 52.6845 42.896 52.6845V51.6845ZM38.2715 50.0028L22.8889 36.8053L22.2378 37.5642L37.6204 50.7617L38.2715 50.0028ZM22.8889 36.8053C22.8347 36.7587 22.8032 36.6963 22.7978 36.6253L21.8006 36.6999C21.8258 37.0362 21.9819 37.3447 22.2378 37.5643L22.8889 36.8053ZM22.7978 36.6251C22.7925 36.554 22.8144 36.4875 22.861 36.4335L22.104 35.7801C21.8838 36.0353 21.7754 36.3637 21.8006 36.7001L22.7978 36.6251ZM22.861 36.4335L23.7657 35.3853L23.0086 34.7319L22.104 35.7801L22.861 36.4335ZM23.7656 35.3854C23.8169 35.3259 23.8896 35.2945 23.9656 35.2945V34.2945C23.6125 34.2945 23.2586 34.4423 23.0087 34.7318L23.7656 35.3854ZM23.9656 35.2945C24.0272 35.2945 24.0873 35.3153 24.1365 35.3575L24.7874 34.5984C24.5495 34.3944 24.2559 34.2945 23.9656 34.2945V35.2945ZM24.1364 35.3575L39.4923 48.5321L40.1434 47.7731L24.7875 34.5985L24.1364 35.3575ZM39.5048 48.5427C40.4544 49.3365 41.6584 49.7734 42.896 49.7734V48.7734C41.8929 48.7734 40.9159 48.4189 40.1461 47.7754L39.5048 48.5427ZM42.896 49.7734H55.6743V48.7734H42.896V49.7734ZM55.6743 49.7734C55.819 49.7734 55.9376 49.892 55.9376 50.0367H56.9376C56.9376 49.3397 56.3713 48.7734 55.6743 48.7734V49.7734ZM55.9376 50.0367V51.4213H56.9376V50.0367H55.9376ZM57.0659 48.1743L56.0663 48.2041L56.0807 48.6858L56.4664 48.9747L57.0659 48.1743ZM44.8652 40.1829L43.8788 40.3471L44.0179 41.1829H44.8652V40.1829ZM42.6102 26.6411L41.6206 26.7848L41.6221 26.7951L41.6238 26.8054L42.6102 26.6411ZM41.3905 24.6339L41.9739 23.8218L41.9739 23.8217L41.3905 24.6339ZM39.0895 24.1205L39.2724 25.1036L39.2724 25.1036L39.0895 24.1205ZM36.853 24.5063L36.7579 23.5109L36.7577 23.5109L36.853 24.5063ZM36.2834 24.8418L37.1078 25.4079L37.1079 25.4078L36.2834 24.8418ZM36.1749 25.4938L37.1382 25.2253L37.1382 25.2252L36.1749 25.4938ZM36.3691 26.1902L36.2502 27.1831L37.7335 27.3608L37.3323 25.9217L36.3691 26.1902ZM32.8256 24.0389L33.6516 23.4752L33.6512 23.4747L32.8256 24.0389ZM32.3483 23.3405L31.5226 23.9046L31.5227 23.9047L32.3483 23.3405ZM31.804 23.0066L31.6744 23.9981L31.6752 23.9982L31.804 23.0066ZM31.1924 23.1902L30.5386 22.4336L30.5386 22.4336L31.1924 23.1902ZM27.4566 26.4188L28.057 27.2184L28.0845 27.1978L28.1104 27.1754L27.4566 26.4188ZM26.254 27.6366L27.0349 28.2613L27.041 28.2536L27.047 28.2459L26.254 27.6366ZM26.2534 27.6374L25.4725 27.0128L25.4667 27.02L25.4611 27.0273L26.2534 27.6374ZM23.7495 33.2432L23.8421 34.2389L24.5526 34.1729L24.7212 33.4795L23.7495 33.2432ZM22.2042 34.0377L22.9613 34.6911L22.9613 34.6911L22.2042 34.0377ZM21.2996 35.0859L22.0567 35.7393L22.0567 35.7393L21.2996 35.0859ZM21.546 38.3706L20.8948 39.1296L20.8948 39.1296L21.546 38.3706ZM36.9343 51.5731L36.2831 52.332L36.2905 52.3383L36.9343 51.5731ZM37.7486 52.1845V53.1845H41.0457L38.3041 51.353L37.7486 52.1845ZM41.9162 31.9855V32.9855H43.0965L42.9026 31.8212L41.9162 31.9855ZM39.6063 31.9855L38.643 32.2539L38.8469 32.9855H39.6063V31.9855ZM39.0313 29.9227V28.9227H37.7145L38.0681 30.1911L39.0313 29.9227ZM41.5727 29.9227L42.5591 29.7584L42.4199 28.9227H41.5727V29.9227ZM42.1763 33.548L43.1628 33.3837L43.0236 32.548H42.1763V33.548ZM42.5369 35.7133V36.7133H43.7172L43.5233 35.549L42.5369 35.7133ZM40.6452 35.7133L39.682 35.9818L39.8859 36.7133H40.6452V35.7133ZM40.0417 33.548V32.548H38.7249L39.0784 33.8165L40.0417 33.548ZM42.7971 37.2758L43.7835 37.1115L43.6444 36.2758H42.7971V37.2758ZM43.3499 40.5958L43.6328 41.5549L44.4817 41.3046L44.3364 40.4315L43.3499 40.5958ZM42.598 40.582L42.9056 39.6305L42.9055 39.6304L42.598 40.582ZM41.7538 39.6906L42.7193 39.4301L42.717 39.4221L41.7538 39.6906ZM41.0807 37.2758V36.2758H39.7639L40.1174 37.5443L41.0807 37.2758ZM39.3752 25.6566L39.5581 26.6398L39.5583 26.6397L39.3752 25.6566ZM40.4788 25.9029L39.8953 26.715L39.8954 26.7151L40.4788 25.9029ZM41.0647 26.8706L42.0554 26.7343L42.0548 26.7301L41.0647 26.8706ZM41.0676 26.8891L42.0541 26.7249L42.0523 26.7146L41.0676 26.8891ZM41.3125 28.3602V29.3602H42.4928L42.2989 28.1959L41.3125 28.3602ZM38.5959 28.3602L37.6326 28.6286L37.8365 29.3602H38.5959V28.3602ZM37.916 25.9207L37.7451 24.9354L36.6558 25.1243L36.9527 26.1892L37.916 25.9207ZM39.8178 48.1526L40.4642 47.3895L39.1593 48.9052L39.8178 48.1526ZM39.8255 48.1591L39.1922 48.933L40.4718 47.396L39.8255 48.1591ZM58.0654 48.1445C57.9173 43.1768 53.8322 39.1829 48.8292 39.1829V41.1829C52.7472 41.1829 55.9503 44.3137 56.0663 48.2041L58.0654 48.1445ZM48.8292 39.1829H44.8652V41.1829H48.8292V39.1829ZM45.8516 40.0186L43.5967 26.4768L41.6238 26.8054L43.8788 40.3471L45.8516 40.0186ZM43.5999 26.4974C43.4427 25.4143 42.8631 24.4606 41.9739 23.8218L40.807 25.4461C41.2552 25.768 41.5414 26.2393 41.6206 26.7848L43.5999 26.4974ZM41.9739 23.8217C41.0812 23.1805 39.9872 22.9364 38.9067 23.1373L39.2724 25.1036C39.8167 25.0024 40.3572 25.123 40.8071 25.4461L41.9739 23.8217ZM38.9067 23.1373C37.2338 23.4484 36.828 23.5042 36.7579 23.5109L36.9481 25.5018C37.1266 25.4847 37.6325 25.4086 39.2724 25.1036L38.9067 23.1373ZM36.7577 23.5109C36.2331 23.5611 35.7574 23.8411 35.459 24.2758L37.1079 25.4078C37.0712 25.4612 37.0127 25.4956 36.9483 25.5018L36.7577 23.5109ZM35.4591 24.2757C35.1607 24.7102 35.0701 25.2546 35.2117 25.7624L37.1382 25.2252C37.1556 25.2876 37.1444 25.3545 37.1078 25.4079L35.4591 24.2757ZM35.2117 25.7624L35.4058 26.4588L37.3323 25.9217L37.1382 25.2253L35.2117 25.7624ZM36.488 25.1973C35.352 25.0613 34.3119 24.4428 33.6516 23.4752L31.9996 24.6026C32.9893 26.0528 34.548 26.9793 36.2502 27.1831L36.488 25.1973ZM33.6512 23.4747L33.1739 22.7762L31.5227 23.9047L32 24.6032L33.6512 23.4747ZM33.174 22.7763C32.8876 22.3572 32.4361 22.0803 31.9328 22.0149L31.6752 23.9982C31.6133 23.9902 31.5579 23.9562 31.5226 23.9046L33.174 22.7763ZM31.9336 22.015C31.4295 21.9491 30.9221 22.1022 30.5386 22.4336L31.8463 23.9469C31.7996 23.9872 31.7373 24.0064 31.6744 23.9981L31.9336 22.015ZM30.5386 22.4336L26.8027 25.6621L28.1104 27.1754L31.8463 23.9469L30.5386 22.4336ZM26.8561 25.6191C26.3528 25.997 25.8856 26.4748 25.461 27.0274L27.047 28.2459C27.3813 27.8107 27.7231 27.4691 28.057 27.2184L26.8561 25.6191ZM25.4731 27.012L25.4725 27.0128L27.0343 28.2621L27.0349 28.2613L25.4731 27.012ZM25.4611 27.0273C24.2945 28.5422 23.3285 30.7426 22.7779 33.0069L24.7212 33.4795C25.2248 31.4085 26.0927 29.485 27.0457 28.2476L25.4611 27.0273ZM23.657 32.2475C22.833 32.3241 22.0315 32.7073 21.4472 33.3844L22.9613 34.6911C23.1927 34.4229 23.5094 34.2698 23.8421 34.2389L23.657 32.2475ZM21.4472 33.3844L20.5426 34.4326L22.0567 35.7393L22.9613 34.6911L21.4472 33.3844ZM20.5426 34.4326C19.9622 35.105 19.6775 35.9684 19.7439 36.8542L21.7383 36.7046C21.7116 36.3488 21.8236 36.0094 22.0567 35.7393L20.5426 34.4326ZM19.7439 36.8542C19.8103 37.7399 20.2206 38.5511 20.8948 39.1296L22.1971 37.6117C21.9263 37.3793 21.765 37.0604 21.7383 36.7046L19.7439 36.8542ZM20.8948 39.1296L36.2832 52.332L37.5855 50.8141L22.1971 37.6117L20.8948 39.1296ZM36.2905 52.3383C36.5798 52.5816 36.8813 52.8077 37.1931 53.0161L38.3041 51.353C38.053 51.1853 37.8105 51.0034 37.5781 50.8078L36.2905 52.3383ZM37.7486 51.1845H32.9248V53.1845H37.7486V51.1845ZM32.9248 51.1845C31.941 51.1845 31.1435 51.982 31.1435 52.9658H33.1435C33.1435 53.0866 33.0456 53.1845 32.9248 53.1845V51.1845ZM31.1435 52.9658C31.1435 53.9496 31.941 54.747 32.9248 54.747V52.747C33.0456 52.747 33.1435 52.845 33.1435 52.9658H31.1435ZM32.9248 54.747H55.6743V52.747H32.9248V54.747ZM55.6743 54.747C57.509 54.747 59.0001 53.256 59.0001 51.4213H57.0001C57.0001 52.1514 56.4044 52.747 55.6743 52.747V54.747ZM59.0001 51.4213V50.0367H57.0001V51.4213H59.0001ZM59.0001 50.0367C59.0001 48.9464 58.4726 47.9785 57.6654 47.3739L56.4664 48.9747C56.7928 49.2192 57.0001 49.605 57.0001 50.0367H59.0001ZM41.9162 30.9855H39.6063V32.9855H41.9162V30.9855ZM40.5695 31.717L39.9946 29.6542L38.0681 30.1911L38.643 32.2539L40.5695 31.717ZM39.0313 30.9227H41.5727V28.9227H39.0313V30.9227ZM40.5863 30.0869L40.9298 32.1497L42.9026 31.8212L42.5591 29.7584L40.5863 30.0869ZM41.1899 33.7122L41.5505 35.8775L43.5233 35.549L43.1628 33.3837L41.1899 33.7122ZM42.5369 34.7133H40.6452V36.7133H42.5369V34.7133ZM41.6085 35.4448L41.005 33.2795L39.0784 33.8165L39.682 35.9818L41.6085 35.4448ZM40.0417 34.548H42.1763V32.548H40.0417V34.548ZM41.8107 37.44L42.3635 40.76L44.3364 40.4315L43.7835 37.1115L41.8107 37.44ZM43.067 39.6366C43.0246 39.6492 42.9717 39.6518 42.9056 39.6305L42.2903 41.5335C42.7292 41.6754 43.1937 41.6844 43.6328 41.5549L43.067 39.6366ZM42.9055 39.6304C42.8102 39.5996 42.7486 39.539 42.7192 39.4301L40.7883 39.951C40.9925 40.7078 41.545 41.2926 42.2905 41.5335L42.9055 39.6304ZM42.717 39.4221L42.044 37.0073L40.1174 37.5443L40.7905 39.959L42.717 39.4221ZM41.0807 38.2758H42.7971V36.2758H41.0807V38.2758ZM39.5583 26.6397C39.6798 26.6171 39.7948 26.6427 39.8953 26.715L41.0624 25.0908C40.519 24.7004 39.8502 24.551 39.1922 24.6735L39.5583 26.6397ZM39.8954 26.7151C39.996 26.7873 40.0572 26.8884 40.0746 27.011L42.0548 26.7301C41.9608 26.0674 41.6057 25.4811 41.0623 25.0907L39.8954 26.7151ZM40.074 27.0068C40.0761 27.0222 40.079 27.0416 40.0829 27.0636L42.0523 26.7146C42.054 26.7244 42.055 26.7314 42.0554 26.7343L40.074 27.0068ZM40.0812 27.0534L40.3261 28.5244L42.2989 28.1959L42.054 26.7249L40.0812 27.0534ZM41.3125 27.3602H38.5959V29.3602H41.3125V27.3602ZM39.5592 28.0917L38.8792 25.6522L36.9527 26.1892L37.6326 28.6286L39.5592 28.0917ZM38.0868 26.906C38.4316 26.8462 38.9046 26.7613 39.5581 26.6398L39.1924 24.6735C38.5444 24.794 38.0798 24.8774 37.7451 24.9354L38.0868 26.906ZM39.1593 48.9052C39.1694 48.9139 39.1804 48.9233 39.1922 48.933L40.4587 47.3851C40.4654 47.3906 40.4713 47.3956 40.4763 47.4L39.1593 48.9052ZM39.1715 48.9156L39.1791 48.9221L40.4718 47.396L40.4642 47.3895L39.1715 48.9156Z" fill="#29A867" mask="url(#path-6-inside-1)"/>
</svg>
