<svg width="76" height="76" viewBox="0 0 76 76" fill="none" xmlns="http://www.w3.org/2000/svg">
<circle cx="38" cy="38" r="38" fill="#E4E4E4"/>
<rect x="17" y="19" width="42" height="33" rx="4" stroke="#29A867" stroke-width="2"/>
<rect x="35" y="53" width="5" height="6" fill="#61DB99"/>
<path d="M30 61C30 59.3431 31.3431 58 33 58H42C43.6569 58 45 59.3431 45 61H30Z" fill="#009E74"/>
<rect x="20" y="22" width="36" height="27" rx="3" fill="#91BDFF"/>
<g filter="url(#filter0_d)">
<rect x="49" y="35" width="14" height="24" rx="2" fill="#009E74"/>
</g>
<g filter="url(#filter1_d)">
<rect x="7" y="45" width="20" height="13" rx="2" fill="#009E74"/>
</g>
<rect x="50" y="36" width="12" height="19" rx="1" fill="#91BDFF"/>
<circle cx="56" cy="57" r="1" fill="#A7F3CE"/>
<circle cx="17.5" cy="51.5" r="4.5" fill="#A7F3CE"/>
<circle cx="17.5" cy="51.5" r="3.5" fill="#29A867"/>
<circle cx="20" cy="49" r="1" fill="white"/>
<rect x="9" y="46" width="4" height="1" rx="0.5" fill="#61DB99"/>
<rect x="23" y="46" width="2" height="1" rx="0.5" fill="#61DB99"/>
<rect x="9" y="44" width="2" height="1" rx="0.5" fill="#61DB99"/>
<defs>
<filter id="filter0_d" x="45" y="35" width="22" height="32" filterUnits="userSpaceOnUse" color-interpolation-filters="sRGB">
<feFlood flood-opacity="0" result="BackgroundImageFix"/>
<feColorMatrix in="SourceAlpha" type="matrix" values="0 0 0 0 0 0 0 0 0 0 0 0 0 0 0 0 0 0 127 0"/>
<feOffset dy="4"/>
<feGaussianBlur stdDeviation="2"/>
<feColorMatrix type="matrix" values="0 0 0 0 0 0 0 0 0 0 0 0 0 0 0 0 0 0 0.25 0"/>
<feBlend mode="normal" in2="BackgroundImageFix" result="effect1_dropShadow"/>
<feBlend mode="normal" in="SourceGraphic" in2="effect1_dropShadow" result="shape"/>
</filter>
<filter id="filter1_d" x="3" y="45" width="28" height="21" filterUnits="userSpaceOnUse" color-interpolation-filters="sRGB">
<feFlood flood-opacity="0" result="BackgroundImageFix"/>
<feColorMatrix in="SourceAlpha" type="matrix" values="0 0 0 0 0 0 0 0 0 0 0 0 0 0 0 0 0 0 127 0"/>
<feOffset dy="4"/>
<feGaussianBlur stdDeviation="2"/>
<feColorMatrix type="matrix" values="0 0 0 0 0 0 0 0 0 0 0 0 0 0 0 0 0 0 0.25 0"/>
<feBlend mode="normal" in2="BackgroundImageFix" result="effect1_dropShadow"/>
<feBlend mode="normal" in="SourceGraphic" in2="effect1_dropShadow" result="shape"/>
</filter>
</defs>
</svg>
