<svg width="76" height="76" viewBox="0 0 76 76" fill="none" xmlns="http://www.w3.org/2000/svg">
<circle cx="38" cy="38" r="38" fill="#E4E4E4"/>
<circle cx="27" cy="48" r="9" fill="#29A867"/>
<mask id="mask0" mask-type="alpha" maskUnits="userSpaceOnUse" x="20" y="41" width="14" height="14">
<circle cx="27" cy="48" r="7" fill="#65B1EF"/>
</mask>
<g mask="url(#mask0)">
<circle cx="27" cy="48" r="7" fill="#65B1EF"/>
<rect x="28.7244" y="38.666" width="2.69261" height="16.2574" transform="rotate(31.0719 28.7244 38.666)" fill="#59A5E0"/>
<rect width="4.17365" height="21.8958" transform="matrix(-0.85652 -0.516114 -0.516114 0.85652 36.8755 40.1541)" fill="#59A5E0"/>
</g>
<circle cx="49" cy="48" r="9" fill="#29A867"/>
<mask id="mask1" mask-type="alpha" maskUnits="userSpaceOnUse" x="42" y="41" width="14" height="14">
<circle cx="49" cy="48" r="7" fill="#65B1EF"/>
</mask>
<g mask="url(#mask1)">
<circle cx="49" cy="48" r="7" fill="#65B1EF"/>
<rect x="54.3907" y="40.666" width="2.69261" height="16.2574" transform="rotate(31.0719 54.3907 40.666)" fill="#59A5E0"/>
<rect width="1.15215" height="21.8958" transform="matrix(-0.85652 -0.516114 -0.516114 0.85652 59.9538 40.5946)" fill="#59A5E0"/>
</g>
<rect x="34" y="46" width="8" height="3" fill="#29A867"/>
<path d="M16 47C16 46.4477 16.4477 46 17 46H19V49H17C16.4477 49 16 48.5523 16 48V47Z" fill="#29A867"/>
<path d="M60 48C60 48.5523 59.5523 49 59 49H57V46H59C59.5523 46 60 46.4477 60 47V48Z" fill="#29A867"/>
<path d="M21 22C21 19.7909 22.7909 18 25 18H49C51.2091 18 53 19.7909 53 22V32C40.9654 27.5399 33.9106 27.7869 21 32V22Z" fill="#61DB99"/>
<path fill-rule="evenodd" clip-rule="evenodd" d="M58.8692 37H16.1308C19.8439 32.8689 28.0158 30 37.5 30C46.9842 30 55.1561 32.8689 58.8692 37Z" fill="#009E74"/>
</svg>
