<svg width="76" height="76" viewBox="0 0 76 76" fill="none" xmlns="http://www.w3.org/2000/svg">
<circle cx="38" cy="38" r="38" fill="#E4E4E4"/>
<path d="M60 25.5C60 25.5 58.788 22.2627 57.5 20.5C55.7484 18.1028 52.37 16.3238 50.1503 15.3489C48.1929 14.4892 48.4599 13.7299 47 13C46 12.5 45.2122 12.8561 44.5 13.5C43.7878 14.1439 42.5 20 37 19C31.5 18 31.5 13.5 31 13C30.5 12.5 30 12.5 29.5 13L28.5 14C28.5 14 22.0597 16.4974 19 19.5C14.8236 23.5983 12.5 33 12.5 33L22 36V63H54V36L63 33L60 25.5Z" fill="#61DB99"/>
<path d="M49 33H41.5V39L45.5 41.5L49 38.5V33Z" fill="#A7F3CE"/>
<path d="M54 34L62.1702 30.9298L63.5 33.5L54 37L54 34Z" fill="#009E74"/>
<path d="M22 34L13.3806 30.142L12.0508 32.7122L22 37.5L22 34Z" fill="#009E74"/>
<rect x="22" y="59" width="32" height="4" fill="#009E74"/>
</svg>
