<svg width="76" height="76" viewBox="0 0 76 76" fill="none" xmlns="http://www.w3.org/2000/svg">
<circle cx="38" cy="38" r="38" fill="#E4E4E4"/>
<path fill-rule="evenodd" clip-rule="evenodd" d="M27.4444 60C32.6605 60 36.8889 55.7716 36.8889 50.5556C36.8889 45.3395 32.6605 41.1111 27.4444 41.1111C22.2284 41.1111 18 45.3395 18 50.5556C18 55.7716 22.2284 60 27.4444 60ZM27.4444 58.0117C31.5623 58.0117 34.9006 54.6735 34.9006 50.5556C34.9006 46.4376 31.5623 43.0994 27.4444 43.0994C23.3265 43.0994 19.9883 46.4376 19.9883 50.5556C19.9883 54.6735 23.3265 58.0117 27.4444 58.0117Z" fill="#61DB99"/>
<ellipse cx="36.5832" cy="40.7297" rx="17.2222" ry="8.33333" transform="rotate(39.5826 36.5832 40.7297)" fill="#29A867"/>
<circle cx="46.5" cy="48.5" r="1.5" fill="#A7F3CE"/>
<circle cx="46.5" cy="48.5" r="1.5" fill="#A7F3CE"/>
<circle cx="28.5" cy="31.5" r="1.5" fill="#A7F3CE"/>
<circle cx="28.5" cy="31.5" r="1.5" fill="#A7F3CE"/>
<circle cx="48" cy="27" r="10" fill="#FABDBD"/>
<path d="M41.567 19.7498L54.2769 33.7038C54.2769 33.7038 47.7718 36.9302 46.6661 35.7213C46.0433 35.0404 44.7345 36.6497 43.71 38.1854C42.959 39.3112 41.3359 39.5263 40.3987 38.55L36.8806 34.8852C36.0169 33.9855 36.1775 32.5204 37.1517 31.7416C38.5382 30.6333 40.0575 29.1757 39.4086 28.533C38.2921 27.4271 41.567 19.7498 41.567 19.7498Z" fill="#FABDBD"/>
</svg>
