<svg width="76" height="76" viewBox="0 0 76 76" fill="none" xmlns="http://www.w3.org/2000/svg">
<circle cx="38" cy="38" r="38" fill="#E4E4E4"/>
<rect x="27" y="30" width="1" height="2" fill="#009E74"/>
<rect x="46" y="30" width="1" height="2" fill="#009E74"/>
<path fill-rule="evenodd" clip-rule="evenodd" d="M26.0086 30.92C26.0029 30.7807 26 30.6407 26 30.5C26 24.701 30.9249 20 37 20C43.0751 20 48 24.701 48 30.5C48 30.6407 47.9971 30.7807 47.9914 30.92H45.3486C45.3562 30.7809 45.36 30.6409 45.36 30.5C45.36 26.0928 41.6171 22.52 37 22.52C32.3829 22.52 28.64 26.0928 28.64 30.5C28.64 30.6409 28.6438 30.7809 28.6514 30.92H26.0086Z" fill="#61DB99"/>
<path d="M25.6971 33H48.816C50.9536 33 52.8548 34.3589 53.5468 36.3815L57.4308 47.734C58.985 52.2767 55.6089 57 50.8077 57H22.9324C17.953 57 14.5658 51.9478 16.4569 47.3415L21.0717 36.101C21.8419 34.225 23.6691 33 25.6971 33Z" fill="#61DB99" stroke="#009E74" stroke-width="2"/>
<path d="M40.6309 41.1499C38.649 40.4337 37.0344 42.5164 37.0344 42.5164C37.0344 42.5164 35.4886 40.5282 33.4742 41.1443C30.3157 42.1119 30.5568 45.9768 32.1121 47.9631C33.5985 49.8625 36.5676 51.7902 36.9502 51.9849V51.9962L36.9942 52C36.9942 52 37.0172 51.9981 37.021 51.9943C37.0248 51.9981 36.9866 52 36.9866 52L36.9502 51.9962V51.9849C37.5241 51.7921 40.3746 49.7132 41.8629 47.8138C43.4164 45.8275 43.7033 42.2612 40.6309 41.1499Z" fill="#E53935"/>
</svg>
