<svg width="76" height="76" viewBox="0 0 76 76" fill="none" xmlns="http://www.w3.org/2000/svg">
<circle cx="38" cy="38" r="38" fill="#E4E4E4"/>
<rect x="28" y="53" width="3" height="4" rx="1" fill="#61DB99"/>
<rect x="44" y="53" width="3" height="4" rx="1" fill="#61DB99"/>
<path d="M24 44H50V31C50 25.4772 45.5228 21 40 21H34C28.4772 21 24 25.4772 24 31V44Z" fill="#009E74"/>
<path d="M22 34C22 32.3431 23.3431 31 25 31C26.6569 31 28 32.3431 28 34V48H22V34Z" fill="#61DB99"/>
<path d="M46 34C46 32.3431 47.3431 31 49 31C50.6569 31 52 32.3431 52 34V48H46V34Z" fill="#61DB99"/>
<path d="M22 44H52V49C52 51.7614 49.7614 54 47 54H27C24.2386 54 22 51.7614 22 49V44Z" fill="#29A867"/>
<path d="M29 40C29 38.3431 30.3431 37 32 37H33C34.6569 37 36 38.3431 36 40V44H29V40Z" fill="#A7F3CE"/>
<path d="M38 40C38 38.3431 39.3431 37 41 37H42C43.6569 37 45 38.3431 45 40V44H38V40Z" fill="#A7F3CE"/>
</svg>
